<svg width="43" height="43" viewBox="0 0 43 43" fill="none" xmlns="http://www.w3.org/2000/svg">
<path d="M14.2281 18.4819C14.4165 19.5703 15.4515 20.2999 16.5399 20.1115C17.6283 19.9231 18.3579 18.8881 18.1695 17.7997L14.2281 18.4819ZM26.8572 18.1408L24.8646 17.9684L26.8572 18.1408ZM16.1988 30.4585L14.1988 30.4585C14.1988 31.5631 15.0943 32.4585 16.1988 32.4585V30.4585ZM26.8572 32.4585C27.9617 32.4585 28.8572 31.5631 28.8572 30.4585C28.8572 29.3539 27.9617 28.4585 26.8572 28.4585V32.4585ZM39.4163 21.5002H37.4163C37.4163 30.2907 30.2902 37.4168 21.4997 37.4168V39.4168V41.4168C32.4993 41.4168 41.4163 32.4998 41.4163 21.5002H39.4163ZM21.4997 39.4168V37.4168C12.7091 37.4168 5.58301 30.2907 5.58301 21.5002H3.58301H1.58301C1.58301 32.4998 10.5 41.4168 21.4997 41.4168V39.4168ZM3.58301 21.5002H5.58301C5.58301 12.7096 12.7091 5.5835 21.4997 5.5835V3.5835V1.5835C10.5 1.5835 1.58301 10.5005 1.58301 21.5002H3.58301ZM21.4997 3.5835V5.5835C30.2902 5.5835 37.4163 12.7096 37.4163 21.5002H39.4163H41.4163C41.4163 10.5005 32.4993 1.5835 21.4997 1.5835V3.5835ZM16.1988 18.1408L18.1695 17.7997C17.8901 16.1854 19.0459 14.5418 21.528 14.5418V12.5418V10.5418C17.082 10.5418 13.4416 13.9373 14.2281 18.4819L16.1988 18.1408ZM21.528 12.5418V14.5418C23.5642 14.5418 25.0086 16.3046 24.8646 17.9684L26.8572 18.1408L28.8497 18.3132C29.1978 14.2906 25.8869 10.5418 21.528 10.5418V12.5418ZM26.8572 18.1408L24.8646 17.9684C24.7883 18.8501 24.4111 19.4369 23.7068 20.0084C22.8909 20.6705 21.8357 21.1632 20.4169 21.8894C19.1181 22.5542 17.5412 23.4084 16.3172 24.7391C15.0168 26.1529 14.1988 28.0022 14.1988 30.4585L16.1988 30.4585L18.1988 30.4585C18.1988 28.9955 18.6465 28.1153 19.2612 27.447C19.9524 26.6956 20.9402 26.1151 22.2394 25.4501C23.4186 24.8465 24.9947 24.1145 26.2272 23.1144C27.5713 22.0237 28.6596 20.5109 28.8497 18.3132L26.8572 18.1408ZM16.1988 30.4585V32.4585H26.8572V30.4585V28.4585H16.1988V30.4585Z" fill="#212D99"/>
</svg>
