<svg width="43" height="43" viewBox="0 0 43 43" fill="none" xmlns="http://www.w3.org/2000/svg">
<path d="M21.4137 19.5002C20.3091 19.5002 19.4137 20.3956 19.4137 21.5002C19.4137 22.6047 20.3091 23.5002 21.4137 23.5002V19.5002ZM14.7289 15.3576C14.4286 16.4206 15.047 17.5257 16.11 17.8259C17.173 18.1261 18.2781 17.5078 18.5783 16.4448L14.7289 15.3576ZM18.0329 26.5003C17.7022 25.4464 16.5798 24.8602 15.5259 25.1909C14.472 25.5216 13.8857 26.644 14.2164 27.6979L18.0329 26.5003ZM39.4163 21.5002H37.4163C37.4163 30.2907 30.2902 37.4168 21.4997 37.4168V39.4168V41.4168C32.4993 41.4168 41.4163 32.4998 41.4163 21.5002H39.4163ZM21.4997 39.4168V37.4168C12.7091 37.4168 5.58301 30.2907 5.58301 21.5002H3.58301H1.58301C1.58301 32.4998 10.5 41.4168 21.4997 41.4168V39.4168ZM3.58301 21.5002H5.58301C5.58301 12.7096 12.7091 5.5835 21.4997 5.5835V3.5835V1.5835C10.5 1.5835 1.58301 10.5005 1.58301 21.5002H3.58301ZM21.4997 3.5835V5.5835C30.2902 5.5835 37.4163 12.7096 37.4163 21.5002H39.4163H41.4163C41.4163 10.5005 32.4993 1.5835 21.4997 1.5835V3.5835ZM26.3286 17.021H24.3286C24.3286 18.2195 23.2023 19.5002 21.4137 19.5002V21.5002V23.5002C25.0539 23.5002 28.3286 20.77 28.3286 17.021H26.3286ZM21.4137 12.5418V14.5418C23.2023 14.5418 24.3286 15.8225 24.3286 17.021H26.3286H28.3286C28.3286 13.272 25.0539 10.5418 21.4137 10.5418V12.5418ZM26.8747 25.9793H24.8747C24.8747 26.9961 23.7141 28.4585 21.4137 28.4585V30.4585V32.4585C25.1453 32.4585 28.8747 29.9101 28.8747 25.9793H26.8747ZM21.4137 21.5002V23.5002C23.7141 23.5002 24.8747 24.9626 24.8747 25.9793H26.8747H28.8747C28.8747 22.0485 25.1453 19.5002 21.4137 19.5002V21.5002ZM16.6536 15.9012L18.5783 16.4448C18.8571 15.4576 19.9292 14.5418 21.4137 14.5418V12.5418V10.5418C18.3178 10.5418 15.5413 12.481 14.7289 15.3576L16.6536 15.9012ZM21.4137 30.4585V28.4585C19.5334 28.4585 18.3198 27.4144 18.0329 26.5003L16.1247 27.0991L14.2164 27.6979C15.1421 30.6477 18.2047 32.4585 21.4137 32.4585V30.4585Z" fill="#212D99"/>
</svg>
