<svg width="204" height="204" viewBox="0 0 204 204" fill="none" xmlns="http://www.w3.org/2000/svg">
<path d="M102 25.5C144.25 25.5 178.5 59.7502 178.5 102C178.5 144.25 144.25 178.5 102 178.5C59.7502 178.5 25.5 144.25 25.5 102C25.5 59.7502 59.7502 25.5 102 25.5ZM72.6895 62.8018C69.9416 60.3188 65.6981 60.4015 63.0498 63.0498C60.4015 65.6981 60.3188 69.9416 62.8018 72.6895L63.0498 72.9492L92.0996 101.999L63.0498 131.05C60.3161 133.783 60.3161 138.217 63.0498 140.95C65.7835 143.684 70.2165 143.684 72.9502 140.95L102 111.899L131.05 140.95C133.783 143.684 138.217 143.684 140.95 140.95C143.684 138.217 143.684 133.783 140.95 131.05L111.899 101.999L140.95 72.9492L141.198 72.6895C143.681 69.9416 143.599 65.6981 140.95 63.0498C138.302 60.4015 134.058 60.3188 131.311 62.8018L131.051 63.0498L102 92.0996L72.9492 63.0498L72.6895 62.8018Z" fill="#D7615D"/>
</svg>
